<svg width="123" height="126" viewBox="0 0 123 126" fill="none" xmlns="http://www.w3.org/2000/svg">
<path d="M9.68 110.347C9.50667 110.494 9.28 110.614 9 110.707C8.73333 110.787 8.42 110.827 8.06 110.827C7.58 110.827 7.18 110.767 6.86 110.647C6.55333 110.527 6.35333 110.32 6.26 110.027C5.88667 108.854 5.58 107.907 5.34 107.187C5.1 106.454 4.91333 105.814 4.78 105.267H4.68C4.64 106.054 4.60667 106.774 4.58 107.427C4.56667 108.067 4.55333 108.694 4.54 109.307C4.54 109.92 4.52667 110.54 4.5 111.167C4.48667 111.794 4.46 112.487 4.42 113.247C4.24667 113.314 4.02 113.367 3.74 113.407C3.46 113.46 3.18 113.487 2.9 113.487C2.31333 113.487 1.85333 113.394 1.52 113.207C1.2 113.02 1.04 112.68 1.04 112.187L1.62 101.987C1.72667 101.814 1.96 101.627 2.32 101.427C2.68 101.227 3.18667 101.127 3.84 101.127C4.54667 101.127 5.1 101.24 5.5 101.467C5.9 101.68 6.19333 102.034 6.38 102.527C6.5 102.847 6.62667 103.214 6.76 103.627C6.90667 104.04 7.04667 104.467 7.18 104.907C7.32667 105.347 7.46667 105.787 7.6 106.227C7.73333 106.654 7.85333 107.04 7.96 107.387H8.06C8.38 106.267 8.7 105.187 9.02 104.147C9.34 103.094 9.63333 102.214 9.9 101.507C10.1 101.4 10.3533 101.314 10.66 101.247C10.98 101.167 11.3333 101.127 11.72 101.127C12.3733 101.127 12.9067 101.227 13.32 101.427C13.7333 101.614 13.9733 101.887 14.04 102.247C14.0933 102.514 14.1467 102.927 14.2 103.487C14.2667 104.034 14.3333 104.654 14.4 105.347C14.4667 106.04 14.5333 106.774 14.6 107.547C14.6667 108.32 14.7267 109.067 14.78 109.787C14.8467 110.494 14.9 111.147 14.94 111.747C14.98 112.334 15.0067 112.787 15.02 113.107C14.7933 113.24 14.5533 113.334 14.3 113.387C14.06 113.454 13.7467 113.487 13.36 113.487C12.8533 113.487 12.4267 113.4 12.08 113.227C11.7333 113.054 11.5467 112.714 11.52 112.207C11.44 110.754 11.3867 109.447 11.36 108.287C11.3467 107.127 11.32 106.154 11.28 105.367H11.18C11.0467 105.887 10.8533 106.54 10.6 107.327C10.3467 108.114 10.04 109.12 9.68 110.347ZM26.9594 108.467C26.9594 109.294 26.8327 110.034 26.5794 110.687C26.326 111.327 25.966 111.867 25.4994 112.307C25.046 112.747 24.4994 113.08 23.8594 113.307C23.2194 113.534 22.506 113.647 21.7194 113.647C20.9327 113.647 20.2194 113.527 19.5794 113.287C18.9394 113.047 18.386 112.707 17.9194 112.267C17.466 111.814 17.1127 111.267 16.8594 110.627C16.606 109.987 16.4794 109.267 16.4794 108.467C16.4794 107.68 16.606 106.967 16.8594 106.327C17.1127 105.687 17.466 105.147 17.9194 104.707C18.386 104.254 18.9394 103.907 19.5794 103.667C20.2194 103.427 20.9327 103.307 21.7194 103.307C22.506 103.307 23.2194 103.434 23.8594 103.687C24.4994 103.927 25.046 104.274 25.4994 104.727C25.966 105.167 26.326 105.707 26.5794 106.347C26.8327 106.987 26.9594 107.694 26.9594 108.467ZM19.9594 108.467C19.9594 109.28 20.1127 109.907 20.4194 110.347C20.7394 110.774 21.1794 110.987 21.7394 110.987C22.2994 110.987 22.726 110.767 23.0194 110.327C23.326 109.887 23.4794 109.267 23.4794 108.467C23.4794 107.667 23.326 107.054 23.0194 106.627C22.7127 106.187 22.2794 105.967 21.7194 105.967C21.1594 105.967 20.726 106.187 20.4194 106.627C20.1127 107.054 19.9594 107.667 19.9594 108.467ZM34.8642 113.067C34.6776 113.214 34.4042 113.334 34.0442 113.427C33.6842 113.52 33.2776 113.567 32.8242 113.567C32.3042 113.567 31.8509 113.5 31.4642 113.367C31.0909 113.234 30.8309 113.02 30.6842 112.727C30.5642 112.5 30.4176 112.187 30.2442 111.787C30.0842 111.374 29.9109 110.92 29.7242 110.427C29.5376 109.92 29.3442 109.38 29.1442 108.807C28.9442 108.234 28.7509 107.667 28.5642 107.107C28.3909 106.547 28.2309 106.007 28.0842 105.487C27.9376 104.967 27.8176 104.507 27.7242 104.107C27.9109 103.92 28.1576 103.76 28.4642 103.627C28.7842 103.48 29.1309 103.407 29.5042 103.407C29.9709 103.407 30.3509 103.507 30.6442 103.707C30.9509 103.894 31.1776 104.254 31.3242 104.787L32.1042 107.847C32.2509 108.447 32.3909 108.994 32.5242 109.487C32.6576 109.967 32.7576 110.34 32.8242 110.607H32.9242C33.1776 109.62 33.4442 108.527 33.7242 107.327C34.0042 106.127 34.2576 104.947 34.4842 103.787C34.7109 103.667 34.9642 103.574 35.2442 103.507C35.5376 103.44 35.8176 103.407 36.0842 103.407C36.5509 103.407 36.9442 103.507 37.2642 103.707C37.5842 103.907 37.7442 104.254 37.7442 104.747C37.7442 104.96 37.6909 105.274 37.5842 105.687C37.4909 106.087 37.3642 106.547 37.2042 107.067C37.0576 107.574 36.8776 108.114 36.6642 108.687C36.4642 109.26 36.2576 109.82 36.0442 110.367C35.8309 110.914 35.6176 111.427 35.4042 111.907C35.2042 112.374 35.0242 112.76 34.8642 113.067ZM39.1827 100.907C39.1827 100.4 39.3493 99.9737 39.6827 99.627C40.0293 99.2803 40.4827 99.107 41.0427 99.107C41.6027 99.107 42.0493 99.2803 42.3827 99.627C42.7293 99.9737 42.9027 100.4 42.9027 100.907C42.9027 101.414 42.7293 101.84 42.3827 102.187C42.0493 102.534 41.6027 102.707 41.0427 102.707C40.4827 102.707 40.0293 102.534 39.6827 102.187C39.3493 101.84 39.1827 101.414 39.1827 100.907ZM42.7427 113.307C42.596 113.334 42.376 113.367 42.0827 113.407C41.8027 113.46 41.516 113.487 41.2227 113.487C40.9293 113.487 40.6627 113.467 40.4227 113.427C40.196 113.387 40.0027 113.307 39.8427 113.187C39.6827 113.067 39.556 112.907 39.4627 112.707C39.3827 112.494 39.3427 112.22 39.3427 111.887V103.747C39.4893 103.72 39.7027 103.687 39.9827 103.647C40.276 103.594 40.5693 103.567 40.8627 103.567C41.156 103.567 41.416 103.587 41.6427 103.627C41.8827 103.667 42.0827 103.747 42.2427 103.867C42.4027 103.987 42.5227 104.154 42.6027 104.367C42.696 104.567 42.7427 104.834 42.7427 105.167V113.307ZM50.0472 113.647C49.2605 113.647 48.5272 113.54 47.8472 113.327C47.1805 113.1 46.5939 112.767 46.0872 112.327C45.5939 111.887 45.2005 111.334 44.9072 110.667C44.6272 110 44.4872 109.22 44.4872 108.327C44.4872 107.447 44.6272 106.694 44.9072 106.067C45.2005 105.427 45.5805 104.907 46.0472 104.507C46.5139 104.094 47.0472 103.794 47.6472 103.607C48.2472 103.407 48.8605 103.307 49.4872 103.307C50.1939 103.307 50.8339 103.414 51.4072 103.627C51.9939 103.84 52.4939 104.134 52.9072 104.507C53.3339 104.88 53.6605 105.327 53.8872 105.847C54.1272 106.367 54.2472 106.934 54.2472 107.547C54.2472 108 54.1205 108.347 53.8672 108.587C53.6139 108.827 53.2605 108.98 52.8072 109.047L47.8672 109.787C48.0139 110.227 48.3139 110.56 48.7672 110.787C49.2205 111 49.7405 111.107 50.3272 111.107C50.8739 111.107 51.3872 111.04 51.8672 110.907C52.3605 110.76 52.7605 110.594 53.0672 110.407C53.2805 110.54 53.4605 110.727 53.6072 110.967C53.7539 111.207 53.8272 111.46 53.8272 111.727C53.8272 112.327 53.5472 112.774 52.9872 113.067C52.5605 113.294 52.0805 113.447 51.5472 113.527C51.0139 113.607 50.5139 113.647 50.0472 113.647ZM49.4872 105.787C49.1672 105.787 48.8872 105.84 48.6472 105.947C48.4205 106.054 48.2339 106.194 48.0872 106.367C47.9405 106.527 47.8272 106.714 47.7472 106.927C47.6805 107.127 47.6405 107.334 47.6272 107.547L51.0472 106.987C51.0072 106.72 50.8605 106.454 50.6072 106.187C50.3539 105.92 49.9805 105.787 49.4872 105.787ZM59.4861 108.507C58.8994 108.307 58.3661 108.107 57.8861 107.907C57.4061 107.694 56.9928 107.44 56.6461 107.147C56.2994 106.854 56.0261 106.507 55.8261 106.107C55.6394 105.694 55.5461 105.194 55.5461 104.607C55.5461 103.474 55.9794 102.567 56.8461 101.887C57.7261 101.207 58.9528 100.867 60.5261 100.867C61.0994 100.867 61.6328 100.907 62.1261 100.987C62.6194 101.067 63.0394 101.194 63.3861 101.367C63.7461 101.527 64.0261 101.74 64.2261 102.007C64.4261 102.26 64.5261 102.56 64.5261 102.907C64.5261 103.254 64.4461 103.554 64.2861 103.807C64.1261 104.047 63.9328 104.254 63.7061 104.427C63.4128 104.24 63.0194 104.08 62.5261 103.947C62.0328 103.8 61.4928 103.727 60.9061 103.727C60.3061 103.727 59.8661 103.814 59.5861 103.987C59.3061 104.147 59.1661 104.354 59.1661 104.607C59.1661 104.807 59.2528 104.974 59.4261 105.107C59.5994 105.227 59.8594 105.34 60.2061 105.447L61.2661 105.787C62.5194 106.187 63.4794 106.7 64.1461 107.327C64.8261 107.94 65.1661 108.78 65.1661 109.847C65.1661 110.98 64.7194 111.9 63.8261 112.607C62.9328 113.3 61.6194 113.647 59.8861 113.647C59.2728 113.647 58.6994 113.594 58.1661 113.487C57.6461 113.394 57.1861 113.254 56.7861 113.067C56.3994 112.867 56.0928 112.627 55.8661 112.347C55.6528 112.054 55.5461 111.72 55.5461 111.347C55.5461 110.96 55.6594 110.634 55.8861 110.367C56.1128 110.087 56.3594 109.874 56.6261 109.727C56.9994 110.02 57.4528 110.274 57.9861 110.487C58.5328 110.7 59.1261 110.807 59.7661 110.807C60.4194 110.807 60.8794 110.707 61.1461 110.507C61.4128 110.307 61.5461 110.074 61.5461 109.807C61.5461 109.54 61.4394 109.34 61.2261 109.207C61.0128 109.06 60.7128 108.92 60.3261 108.787L59.4861 108.507ZM70.2017 109.987C70.2017 110.334 70.3084 110.58 70.5217 110.727C70.7484 110.874 71.0617 110.947 71.4617 110.947C71.6617 110.947 71.8684 110.934 72.0817 110.907C72.2951 110.867 72.4817 110.82 72.6417 110.767C72.7617 110.914 72.8617 111.08 72.9417 111.267C73.0351 111.44 73.0817 111.654 73.0817 111.907C73.0817 112.414 72.8884 112.827 72.5017 113.147C72.1284 113.467 71.4617 113.627 70.5017 113.627C69.3284 113.627 68.4217 113.36 67.7817 112.827C67.1551 112.294 66.8417 111.427 66.8417 110.227V101.667C66.9884 101.627 67.1951 101.587 67.4617 101.547C67.7417 101.494 68.0351 101.467 68.3417 101.467C68.9284 101.467 69.3817 101.574 69.7017 101.787C70.0351 101.987 70.2017 102.42 70.2017 103.087V104.367H72.8217C72.9017 104.514 72.9751 104.7 73.0417 104.927C73.1217 105.14 73.1617 105.38 73.1617 105.647C73.1617 106.114 73.0551 106.454 72.8417 106.667C72.6417 106.867 72.3684 106.967 72.0217 106.967H70.2017V109.987ZM78.9695 111.167C79.1962 111.167 79.4429 111.147 79.7095 111.107C79.9895 111.054 80.1962 110.987 80.3295 110.907V109.307L78.8895 109.427C78.5162 109.454 78.2095 109.534 77.9695 109.667C77.7295 109.8 77.6095 110 77.6095 110.267C77.6095 110.534 77.7095 110.754 77.9095 110.927C78.1229 111.087 78.4762 111.167 78.9695 111.167ZM78.8095 103.307C79.5295 103.307 80.1829 103.38 80.7695 103.527C81.3695 103.674 81.8762 103.9 82.2895 104.207C82.7162 104.5 83.0429 104.88 83.2695 105.347C83.4962 105.8 83.6095 106.34 83.6095 106.967V111.447C83.6095 111.794 83.5095 112.08 83.3095 112.307C83.1229 112.52 82.8962 112.707 82.6295 112.867C81.7629 113.387 80.5429 113.647 78.9695 113.647C78.2629 113.647 77.6229 113.58 77.0495 113.447C76.4895 113.314 76.0029 113.114 75.5895 112.847C75.1895 112.58 74.8762 112.24 74.6495 111.827C74.4362 111.414 74.3295 110.934 74.3295 110.387C74.3295 109.467 74.6029 108.76 75.1495 108.267C75.6962 107.774 76.5429 107.467 77.6895 107.347L80.3095 107.067V106.927C80.3095 106.54 80.1362 106.267 79.7895 106.107C79.4562 105.934 78.9695 105.847 78.3295 105.847C77.8229 105.847 77.3295 105.9 76.8495 106.007C76.3695 106.114 75.9362 106.247 75.5495 106.407C75.3762 106.287 75.2295 106.107 75.1095 105.867C74.9895 105.614 74.9295 105.354 74.9295 105.087C74.9295 104.74 75.0095 104.467 75.1695 104.267C75.3429 104.054 75.6029 103.874 75.9495 103.727C76.3362 103.58 76.7895 103.474 77.3095 103.407C77.8429 103.34 78.3429 103.307 78.8095 103.307ZM89.0884 109.987C89.0884 110.334 89.1951 110.58 89.4084 110.727C89.6351 110.874 89.9484 110.947 90.3484 110.947C90.5484 110.947 90.7551 110.934 90.9684 110.907C91.1818 110.867 91.3684 110.82 91.5284 110.767C91.6484 110.914 91.7484 111.08 91.8284 111.267C91.9218 111.44 91.9684 111.654 91.9684 111.907C91.9684 112.414 91.7751 112.827 91.3884 113.147C91.0151 113.467 90.3484 113.627 89.3884 113.627C88.2151 113.627 87.3084 113.36 86.6684 112.827C86.0418 112.294 85.7284 111.427 85.7284 110.227V101.667C85.8751 101.627 86.0818 101.587 86.3484 101.547C86.6284 101.494 86.9218 101.467 87.2284 101.467C87.8151 101.467 88.2684 101.574 88.5884 101.787C88.9218 101.987 89.0884 102.42 89.0884 103.087V104.367H91.7084C91.7884 104.514 91.8618 104.7 91.9284 104.927C92.0084 105.14 92.0484 105.38 92.0484 105.647C92.0484 106.114 91.9418 106.454 91.7284 106.667C91.5284 106.867 91.2551 106.967 90.9084 106.967H89.0884V109.987ZM93.6163 100.907C93.6163 100.4 93.7829 99.9737 94.1163 99.627C94.4629 99.2803 94.9163 99.107 95.4763 99.107C96.0363 99.107 96.4829 99.2803 96.8163 99.627C97.1629 99.9737 97.3363 100.4 97.3363 100.907C97.3363 101.414 97.1629 101.84 96.8163 102.187C96.4829 102.534 96.0363 102.707 95.4763 102.707C94.9163 102.707 94.4629 102.534 94.1163 102.187C93.7829 101.84 93.6163 101.414 93.6163 100.907ZM97.1763 113.307C97.0296 113.334 96.8096 113.367 96.5163 113.407C96.2363 113.46 95.9496 113.487 95.6563 113.487C95.3629 113.487 95.0963 113.467 94.8563 113.427C94.6296 113.387 94.4363 113.307 94.2763 113.187C94.1163 113.067 93.9896 112.907 93.8963 112.707C93.8163 112.494 93.7763 112.22 93.7763 111.887V103.747C93.9229 103.72 94.1363 103.687 94.4163 103.647C94.7096 103.594 95.0029 103.567 95.2962 103.567C95.5896 103.567 95.8496 103.587 96.0763 103.627C96.3163 103.667 96.5163 103.747 96.6763 103.867C96.8363 103.987 96.9563 104.154 97.0363 104.367C97.1296 104.567 97.1763 104.834 97.1763 105.167V113.307ZM109.401 108.467C109.401 109.294 109.274 110.034 109.021 110.687C108.767 111.327 108.407 111.867 107.941 112.307C107.487 112.747 106.941 113.08 106.301 113.307C105.661 113.534 104.947 113.647 104.161 113.647C103.374 113.647 102.661 113.527 102.021 113.287C101.381 113.047 100.827 112.707 100.361 112.267C99.9074 111.814 99.5541 111.267 99.3008 110.627C99.0474 109.987 98.9208 109.267 98.9208 108.467C98.9208 107.68 99.0474 106.967 99.3008 106.327C99.5541 105.687 99.9074 105.147 100.361 104.707C100.827 104.254 101.381 103.907 102.021 103.667C102.661 103.427 103.374 103.307 104.161 103.307C104.947 103.307 105.661 103.434 106.301 103.687C106.941 103.927 107.487 104.274 107.941 104.727C108.407 105.167 108.767 105.707 109.021 106.347C109.274 106.987 109.401 107.694 109.401 108.467ZM102.401 108.467C102.401 109.28 102.554 109.907 102.861 110.347C103.181 110.774 103.621 110.987 104.181 110.987C104.741 110.987 105.167 110.767 105.461 110.327C105.767 109.887 105.921 109.267 105.921 108.467C105.921 107.667 105.767 107.054 105.461 106.627C105.154 106.187 104.721 105.967 104.161 105.967C103.601 105.967 103.167 106.187 102.861 106.627C102.554 107.054 102.401 107.667 102.401 108.467ZM117.22 107.167C117.22 106.754 117.1 106.454 116.86 106.267C116.633 106.067 116.32 105.967 115.92 105.967C115.653 105.967 115.386 106 115.12 106.067C114.866 106.134 114.646 106.234 114.46 106.367V113.307C114.326 113.347 114.113 113.387 113.82 113.427C113.54 113.467 113.246 113.487 112.94 113.487C112.646 113.487 112.38 113.467 112.14 113.427C111.913 113.387 111.72 113.307 111.56 113.187C111.4 113.067 111.273 112.907 111.18 112.707C111.1 112.494 111.06 112.22 111.06 111.887V105.887C111.06 105.527 111.133 105.234 111.28 105.007C111.44 104.78 111.653 104.574 111.92 104.387C112.373 104.067 112.94 103.807 113.62 103.607C114.313 103.407 115.08 103.307 115.92 103.307C117.426 103.307 118.586 103.64 119.4 104.307C120.213 104.96 120.62 105.874 120.62 107.047V113.307C120.486 113.347 120.273 113.387 119.98 113.427C119.7 113.467 119.406 113.487 119.1 113.487C118.806 113.487 118.54 113.467 118.3 113.427C118.073 113.387 117.88 113.307 117.72 113.187C117.56 113.067 117.433 112.907 117.34 112.707C117.26 112.494 117.22 112.22 117.22 111.887V107.167Z" fill="black"/>
<g clip-path="url(#clip0_2_25)">
<path d="M86.5299 15.8549L82.002 5.74503C81.6451 4.94475 80.757 4.60589 80.0235 4.9893C80.0018 5.00037 42.5813 24.5567 34.0323 29.0246L24.137 31.453C23.3427 31.648 22.8523 32.504 23.04 33.3649C23.5792 35.838 35.1133 88.7386 35.621 91.0673C35.8088 91.9285 36.6038 92.4691 37.398 92.2742L97.7447 77.4643C98.5377 77.2697 99.0279 76.4136 98.8402 75.5524L91.0196 39.6837C88.4945 28.1094 88.6397 28.6931 88.5456 28.4683C88.5389 28.4515 88.4871 28.3448 88.479 28.3287C88.4712 28.313 88.412 28.2142 88.4005 28.1962C88.3915 28.1828 88.325 28.0923 88.3101 28.0726C88.3003 28.0624 88.2278 27.9783 88.2086 27.9597C88.1988 27.9494 88.1099 27.8666 88.099 27.8578C88.0657 27.83 88.0316 27.8048 87.9962 27.7803C87.9908 27.7759 87.9851 27.7712 87.9783 27.7676C87.973 27.7637 87.9676 27.7604 87.9608 27.7568C87.9255 27.7331 87.8889 27.7105 87.8513 27.6903C87.8375 27.6822 87.7334 27.6333 87.7185 27.6272C87.6967 27.6177 87.5939 27.5817 87.581 27.5778C87.5583 27.571 87.4535 27.5465 87.4393 27.5439C87.4205 27.5403 87.3134 27.5265 87.295 27.5247C86.9589 27.4983 88.4625 27.1674 51.7147 36.1858L85.866 17.9766C86.5874 17.5919 86.8848 16.6458 86.5299 15.8549ZM70.2819 22.7073L73.6881 11.8646L77.9518 9.63624L74.5178 20.449L70.2819 22.7073ZM62.4043 26.9075L65.6426 16.0692L69.9456 13.8206L66.5242 24.7112L62.4043 26.9075ZM54.3684 31.1921L57.65 20.2461L61.9543 17.9967L58.7021 28.8819L54.3684 31.1921ZM46.4544 35.412L49.8627 24.316L53.9572 22.1761L50.6635 33.168L46.4544 35.412ZM58.2113 37.8774L52.7275 47.438L48.1713 48.5561L53.6543 38.9958L58.2113 37.8774ZM66.8331 35.7615L61.3487 45.3222L56.7914 46.4407L62.2762 36.8799L66.8331 35.7615ZM75.4533 33.646L69.9702 43.2064L65.4132 44.3247L70.8963 34.7644L75.4533 33.646ZM84.0748 31.5302L78.5903 41.0909L74.0334 42.2092L79.5179 32.6485L84.0748 31.5302ZM87.8073 38.8289L82.6551 40.0933L86.5881 33.2369L87.8073 38.8289ZM45.1038 47.8161L42.0332 41.8479L49.5913 39.993L45.1038 47.8161ZM40.3868 38.6473L36.5829 31.2556L46.1444 26.2591L42.7217 37.4026L40.3868 38.6473ZM26.2539 34.2193L33.7907 32.3697L42.7972 49.8752L30.3343 52.9337L26.2539 34.2193ZM54.3766 79.8927L55.3968 84.5717L52.523 85.277L51.5028 80.5979L54.3766 79.8927ZM60.1235 78.4823L61.1437 83.1613L58.2705 83.8665L57.2503 79.1874L60.1235 78.4823ZM65.8704 77.0719L66.8906 81.751L64.0169 82.4562L62.9967 77.7772L65.8704 77.0719ZM71.6185 75.6612L72.6387 80.3403L69.7648 81.0456L68.7446 76.3665L71.6185 75.6612ZM77.3662 74.2507L78.3864 78.9298L75.5126 79.635L74.4924 74.9559L77.3662 74.2507ZM83.1124 72.8405L84.1326 77.5195L81.2589 78.2248L80.2387 73.5457L83.1124 72.8405ZM95.6281 74.6984L87.0065 76.8143L85.9863 72.1352L87.4233 71.7825C88.2161 71.588 88.7079 70.7317 88.5201 69.8704C88.3323 69.009 87.536 68.4687 86.7432 68.6633L45.0749 78.8893C44.2821 79.0838 43.7903 79.9402 43.9781 80.8016C44.1659 81.6629 44.9622 82.2031 45.755 82.0085L48.6289 81.3032L49.6491 85.9823L38.1551 88.8031L31.0144 56.053C32.6346 55.6554 87.1994 42.2644 88.4873 41.9483L95.6279 74.6984L95.6281 74.6984ZM78.2892 18.4379L80.833 10.431L83.2368 15.7998L78.2892 18.4379Z" fill="black"/>
<path d="M40.3146 57.0566C39.5218 57.2511 39.0301 58.1075 39.2177 58.9681L41.2579 68.3251C41.4457 69.1865 42.2419 69.7268 43.0347 69.5322L83.2661 59.6589C84.059 59.4643 84.5508 58.6079 84.363 57.7466L82.3228 48.3895C82.1351 47.5288 81.3389 46.9886 80.546 47.1832L40.3146 57.0566ZM81.1492 56.8931L43.7918 66.0611L42.4315 59.8225L79.789 50.6545L81.1492 56.8931Z" fill="black"/>
<path d="M50.8995 70.8884L43.7149 72.6516C42.922 72.8462 42.4303 73.7026 42.6181 74.5639C42.8059 75.4252 43.6021 75.9654 44.395 75.7708L51.5796 74.0076C52.3726 73.813 52.8643 72.9568 52.6765 72.0954C52.4887 71.2341 51.6923 70.6938 50.8995 70.8884Z" fill="black"/>
<path d="M83.9462 62.7783L76.7616 64.5415C75.9686 64.7361 75.4783 65.5921 75.6661 66.4535C75.8539 67.3148 76.6489 67.8553 77.4417 67.6607L84.6263 65.8975C85.4193 65.7029 85.911 64.8467 85.7232 63.9853C85.5354 63.124 84.739 62.5837 83.9462 62.7783Z" fill="black"/>
<path d="M67.8014 65.0973C67.0084 65.2919 66.5167 66.1483 66.7045 67.0096L67.3846 70.1289C67.5723 70.9896 68.3686 71.5305 69.1616 71.3359C69.9546 71.1413 70.4462 70.2843 70.2585 69.4236L69.5784 66.3043C69.3906 65.443 68.5942 64.9027 67.8014 65.0973Z" fill="black"/>
<path d="M63.4903 66.1553C62.6974 66.3499 62.2057 67.2063 62.3935 68.0676L63.0736 71.1868C63.2613 72.0476 64.0577 72.5885 64.8505 72.3939C65.6448 72.199 66.1355 71.3422 65.9478 70.4815L65.2677 67.3622C65.0799 66.5009 64.2845 65.9604 63.4903 66.1553Z" fill="black"/>
<path d="M59.1803 67.213C58.3867 67.4078 57.8956 68.2641 58.0834 69.1254L58.7635 72.2446C58.9511 73.1053 59.7469 73.6464 60.5405 73.4517C61.334 73.2569 61.8243 72.4002 61.6367 71.5395L60.9566 68.4203C60.7686 67.559 59.9738 67.0183 59.1803 67.213Z" fill="black"/>
<path d="M21.8083 22.1349L24.4944 22.0621L23.563 23.6859C23.2839 24.1728 23.2695 24.7877 23.5256 25.2952C23.7818 25.8031 24.2688 26.1245 24.8008 26.1376L29.2045 26.2454C30.0214 26.265 30.6891 25.5652 30.6995 24.6834C30.7099 23.8004 30.0573 23.0685 29.2418 23.0487L27.4454 23.0047L28.4559 21.2425C28.7423 20.7439 28.7494 20.1129 28.4762 19.5998C28.2032 19.087 27.692 18.7762 27.1479 18.7908L21.7052 18.938C20.89 18.9601 20.2521 19.6935 20.281 20.5763C20.3099 21.4588 20.9929 22.1571 21.8083 22.1349Z" fill="black"/>
<path d="M37.1446 21.6888C37.9382 21.4941 38.4292 20.638 38.2414 19.7767C38.0536 18.9154 37.2581 18.375 36.4646 18.5698C35.671 18.7645 35.18 19.6206 35.3678 20.4819C35.5556 21.3432 36.3511 21.8836 37.1446 21.6888Z" fill="black"/>
<path d="M83.3102 25.1461C83.498 26.0074 84.2929 26.5479 85.0872 26.3529C85.88 26.1584 86.3717 25.3021 86.1839 24.4408C85.9961 23.5795 85.2 23.0395 84.4071 23.234C83.6127 23.429 83.1223 24.2846 83.3102 25.1461Z" fill="black"/>
<path d="M72.4523 65.599C71.6581 65.794 71.1676 66.6501 71.3554 67.5114C71.5432 68.3727 72.3381 68.9132 73.1324 68.7183C73.9252 68.5237 74.417 67.6675 74.2292 66.8061C74.0414 65.9448 73.245 65.4045 72.4523 65.599Z" fill="black"/>
<path d="M55.2095 69.8307C54.4159 70.0254 53.9255 70.8815 54.1133 71.7428C54.3011 72.6042 55.0959 73.1447 55.8896 72.9499C56.6833 72.7551 57.1743 71.899 56.9865 71.0377C56.7987 70.1764 56.0032 69.6359 55.2095 69.8307Z" fill="black"/>
<path d="M33.6242 47.1974L30.7505 47.9027L31.4306 51.0219L34.3043 50.3166L33.6242 47.1974Z" fill="black"/>
<path d="M39.3712 45.787L36.4974 46.4923L37.1775 49.6115L40.0513 48.9063L39.3712 45.787Z" fill="black"/>
<path d="M32.6805 35.9285L29.8073 36.6336L30.4873 39.7525L33.3605 39.0474L32.6805 35.9285Z" fill="black"/>
</g>
<defs>
<clipPath id="clip0_2_25">
<rect width="73.368" height="80.8881" fill="white" transform="matrix(0.971181 -0.238341 0.213029 0.977046 16.9343 17.4866)"/>
</clipPath>
</defs>
</svg>
